<svg width="257" height="241" fill="none" xmlns="http://www.w3.org/2000/svg"><path fill-rule="evenodd" clip-rule="evenodd" d="M81.5.568c-19.5.57-41.462 9.925-48.047 29.763-4.294 12.641-5.348 27.82 1.524 39.741 2.505 2.418.841 2.252-1.669 2.052-4.131-.057-8.087 1.31-12.093 2.115 6.665 2.17 13.485 5.849 16.091 12.79-9.962 7.763-20.65 14.334-30.533 22.114 6.65.691 14.965-4.034 20.723.752-9.435 5.248-16.47 15.568-21.3 25.496-3.32 6.779-6.466 14.012-5.477 21.775 1.213-1.415 5.66-9.192 6.17-6.831-5.716 22.502-2.777 48.205 11.017 67.293 2.594 3.547 6.209 6.087 9.638 8.753-.253-4.546-5.15-9.275-3.292-13.792 3.08-4.087 5.554 3.184 8.643 4.663 17.084 15.543 42.958 23.804 64.887 13.841 18.865-7.999 34.205-23.244 42.631-41.902 1.621-3.736 5.368 2.861 5.366 5.567 1.198 11.684-1.671 26.846 9.402 34.82 4.114 3.083 9.294 3.995 14.082 5.507-4.902-6.285-11.304-14.415-7.296-22.804 4.36 19.443 26.327 31.918 45.323 26.281 10.484-2.573 18.89-9.899 25.981-17.694-8.144 1.423-17.142 3.36-25.031.967 15.994.918 30.991-12.592 33.779-28.025 2.39-13.667-9.125-24.843-20.859-29.496-7.321-3.199-15.091-5.418-23.047-6.254 6.122 6.342 17.998 12.236 15.281 22.86-2.761 6.941-12.642 10.096-18.415 9.475 6.886-10.91 5.186-29.296-8.304-34.272-2.352.291-.554 7.23-2.252 10.022-.976 6.22-8.38 7.77-13.217 4.723-6.761-2.873-12.64-7.406-18.329-11.973 7.011-17.06 15.78-34.364 30.098-46.306 7.652-5.754 18.029-5.058 25.723.233 4.642 3.05 9.074 5.97 5.285-1.789 1.324 2.69 5.429-2.561 8.398-3.467 10.252-4.935 21.823-1.209 32.367.463-14.559-12.855-33.18-25.808-53.688-22.144-1.918.341-3.922.886-5.697 1.485 3.401-1.86 6.726-3.856 10.087-5.79-10.453-1.199-20.845 2.175-28.973 8.717 3.524-5.103 8.924-11.254-.594-6.069-12.588 5.992-20.488 18.588-27.664 30.021-3.287 4.626-3.938 10.417-5.186 15.54-3.545 4.065-6.253 9.867-9.791 13.2-5.163-1.298-12.852 2.497-15.259-4.337-.683-1.586-3.995-9.615-.727-5.79 3.308 2.253.507 11.093 5.759 7.35 9.983-5.151 14.869-17.21 15.423-27.927-.378-7.335-2.426-5.718-5.209-.119-1.382 2.069-3.795 4.053-4.664.675-2.272-1.78-2.57-3.817-2.209-6.571-.4-6.245-1.629-13.138-7.814-16.36-3.429-1.778-3.265-3.836-.792-6.24 8.341-14.847 16.652-32.402 11.938-49.777C123.991 13.133 102.488-.243 81.5.568Zm.667 26.296c15.195 1.075 21.819 22.697 11.11 32.969-2.015 3.441-3.554-3.514-4.767-5.257-1.969-4.032-.434-8.48-.543-12.723-7.365 5.32-7.424 15.032-5.886 23.046-6.164-7.446-10.425-16.586-10.264-26.427-1.945 2.587-4.628 8.44-5.377 10.009-1.877-10.188 3.669-23.172 15.727-21.617ZM99.594 95.64c2.776 2.724 7.464 6.418 8.873 8.998-3.409 3.078-5.791-4.118-8.804-5.396-1.494.046-.684-4.358-.07-3.602Zm-7.34 19.913c3.985-.24-.417 5.303.36 8.233.273 1.785.916 6.727-1.308 3.9-1.193-3.912-.368-8.123.55-12.002-2.119-.186.355-.092.398-.131Zm4.192.112c2.495.871 10.415-1.055 7.714 3.963-.174 5.746-5.925 5.502-6.49.191.05-.96-2.415-4.057-1.224-4.154Zm7.41 11c3.957 1.376 8.198 2.302 11.717 4.677-5.197-.048-10.838-1.305-14.3-5.504l2.583.827Zm-28.366 0c6.636 5.617 1.455 14.925-3.609 19.629 3.059 1.059 6.636 1.698 9.56-.094-2.799 3.773-6.262 6.981-9.443 10.419 7.51-.7 15.532-2.551 20.81-8.265 4.75-.519 8.55-3.986 10.305-8.322 5.995 2.41 2.281 10.126 5.202 14.725 2.298 4.687 8.047 7.432 10.341 11.456-9.276 13.708-22.508 28.478-40.243 29.227-12.788.206-21.42-12.696-21.577-24.204-1.552-16.575 5.721-33.71 18.36-44.811l.294.24Zm19.687 5.621c1.87 2.94 4.487 5.333 7.325 7.321-4.433 1.341-9.638-1.346-7.979-6.492.162-.355.026-2.728.654-.829Z" fill="#fff" stroke="#000" stroke-width="1.067"/><path fill-rule="evenodd" clip-rule="evenodd" d="M81.527 2.702C67.01 3.073 50.5 9.08 41.992 19.43 31.62 32.048 30.055 52.29 34.737 65.07c.923 2.517 2.713 5.045 4.953 7.489a32.98 32.98 0 0 1 2.773.55c-2.83-7.05-1.665-14.805 1.156-21.656 1.16 12.206 13.533 17.733 22.15 23.558-1.62-6.863-1.73-14.269-.306-21.29-4.206-13.314 1.181-26.276 10.466-28.44a21.95 21.95 0 0 1 5.286-.593c11.816.162 19.817 10.776 19.523 23.998-.095 4.263-2.97 9.175-7.317 14.364 5.626 8.331 13.161 15.408 20.467 22.373 1.962-2.604 3.626-5.183 4.87-7.716 9.308-18.95 13.37-32.727 7.49-47.277-5.88-14.55-19.526-24.515-35.575-27.148a46.652 46.652 0 0 0-6.273-.58 54.51 54.51 0 0 0-2.873-.001ZM70.358 45.189c-3.584 5.575-5.175 24.888-2.09 30.165 1.494.597 13.14 8.762 11.349 14.735-2.49-9.06-32.953-20.509-35.94-31.36-2.09 6.47.597 13.44 2.19 17.422 0 0-10.155-3.187-17.721-1.295C37.006 78.34 39.894 87.8 39.894 87.8c-8.828 6.238-12.419 9.602-26.481 18.716 24.374-4.523 15.893 9.819 14.235 24.69 8.562-9.16 23.916-19.178 35.862-23.161-6.885-.368-12.306.538-17.035 1.007 7.367-7.069 21.993-11.596 37.225-11.894-7.168 1.593-21.15 2.88-27.92 8.854 0 0 14.877-1.985 19.358.404-10.155 2.489-15.73 12.643-16.228 15.331 18.717-3.385 28.573 9.756 16.826 23.296 4.18 1.195 8.46-3.483 9.556-4.877.1 1.593 1.294 3.085 2.887 3.981 0 0-1.693.897-3.485.598-.597 2.489-6.769 8.761-6.769 8.761 6.023-.847 10.354-3.384 13.577-7.105 4.916-.634 7.032-2.652 8.127-4.643-8.96.299-7.468-7.865-6.87-11.15-5.078 1.194-4.48-9.16-3.484-13.142l-10.952-1.592c7.467-4.181 26.284-1.991 27.777-.895 1.294 1.493.398 4.181.398 4.181 1.991-1.195 3.285 0 3.285 0s-2.788 4.28-5.277 5.475c10.653 3.385 15.931 4.879 17.125 13.839 10.653-4.081 15.73-22.799 14.536-26.881-2.191 3.684-4.482 5.476-7.767 6.173 0-2.389-3.584-6.57-4.679-6.471 1.593-3.484-.697-14.137-1.892-15.53-21.205-18.917-39.025-38.131-36.237-48.186-4.281 6.371-1.163 21.437.796 23.195 1.959 1.758 21.604 20.31 21.206 21.405 0 0-35.643-26.183-37.236-46.99Zm7.567 28.273 14.238 13.94-2.39.895-11.848-14.835Zm119.383 10.375c-11.801 0-25.985 12.659-28.92 17.183 0 0 4.096-9.111 8.254-14.798-11.618 4.097-28.923 30.207-30.146 37.3 13.304-19.431 54.095-41.806 69.035-14.187 7.032-4.892 12.657-8.499 31.49-4.892-26.477-22.013-46.042-19.017-58.577-11.496 1.712-5.992 5.807-7.276 8.864-9.11ZM96.742 91.88c4.978.298 12.642 12.345 17.521 13.241-5.576.598-7.565 3.684-7.565 3.684l-10.454-9.857c.896-2.29 1.095-5.177.498-7.068Zm95.314 8.856c-2.23 0-4.527.209-6.829.61-12.276 2.143-19.055 8.156-33.469 21.765-5.302 5.006-10.724 12.733-16.254 21.202 5.437 4.009 10.48 8.645 15.665 13.083 7.402-19.704 22.53-42.3 31.952-47.391 9.664-5.222 15.68-5.616 29.021 2.341-2.022-7.861-10.422-11.625-20.086-11.61Zm-127.4 8.827c-.124.026-.464.208-1.108.606-10.83 4.722-21.224 10.49-30.269 18.413-4.758 4.168-8.72 13.634-8.264 6.087a33.997 33.997 0 0 0-1.746 3.654c-6.291 16.571-11.603 41.681-2.808 59.682 8.794 18 30.71 32.385 49.383 34.873 18.672 2.488 34.568-5.419 49.383-18.021 8.339-7.093 14.954-17.572 20.423-28.952-6.164-6.348-12.784-12.345-19.248-18.463-4.699 6.782-9.461 12.896-14.281 17.223-15.922 14.294-32.408 17.419-43.767 5.852-11.359-11.566-10.176-38.478 2.342-55.469 2.301-3.123 5.277-6.398 8.646-9.777-4.927-2.636-12.096-2.194-17.223-.893.522-4.137 2.497-7.906 5.11-11.094.442-1.004 3.965-3.833 3.427-3.721Zm-36.74 2.825c-13.54 6.372-24.659 32.854-24.958 37.931.797-1.692 4.979-4.379 7.567-4.479-9.956 27.976-1.196 61.826 12.842 74.569-3.087-6.969-1.99-8.52 1.296-11.009-21.803-24.69-6.671-71.083.895-78.65-.099-2.483 3.153-15.514 2.359-18.362Zm67.432 7.367c-3.285 11.25 7.825 17.858 11.448 20.112 3.623 2.254.281 11.782 5.177 16.425 4.895 4.643 24.079 23.225 32.954 31.561 8.876 8.335-5.475 36.736 18.917 43.406-7.766-10.354-5.975-17.622-.798-25.288 2.588 29.27 38.629 44.504 64.017 18.121-8.562 1.593-25.389 2.588-26.484-7.766 21.007 18.019 75.165-38.529 4.081-55.155 24.591 18.219 4.58 33.85-14.535 31.461 8.064-5.974 10.455-27.577-2.487-33.65-1.792 40.121-47.494-10.024-53.763-13.442-6.269-3.418-15.457 6.353-19.935-12.156-8.463-.398-14.809-3.773-18.592-13.629Zm31.402 32.248s33.395 21.138 41.413 25.802c8.017 4.663 19.18 3.115 22.941-9.167 1.129 13.57-15.848 16.867-23.689 11.425-7.842-5.442-40.665-28.06-40.665-28.06Zm10.279 15.075s32.12 22.455 51.184 32.316c19.063 9.862 41.079-5.743 33.833-24.258 12.624 16.146-12.703 38.663-35.229 26.983-4.48-2.322-9.142-5.114-13.744-8.085 1 5.288 4.487 15.889 6.179 18.821 3.698 6.406 16.517 20.033 33.058 14.981-11.436 8.393-29.67-2.293-35.3-12.896-5.06-9.532-4.738-19.562-8.679-24.044-16.673-11.294-31.302-23.818-31.302-23.818Z" fill="#000" stroke="#000" stroke-width="1.067"/></svg>
